<?xml version="1.0" standalone="no"?><!DOCTYPE svg PUBLIC "-//W3C//DTD SVG 1.1//EN" "http://www.w3.org/Graphics/SVG/1.1/DTD/svg11.dtd"><svg t="1784251141232" class="icon" viewBox="0 0 1024 1024" version="1.1" xmlns="http://www.w3.org/2000/svg" p-id="5374" xmlns:xlink="http://www.w3.org/1999/xlink" width="256" height="256"><path d="M476.608 183.872h-0.192a292.672 292.672 0 1 0 292.8 292.672h83.2a374.4 374.4 0 0 1-82.112 234.24l153.216 153.984-29.504 29.376-29.504 29.312-152.96-153.792a374.272 374.272 0 0 1-235.136 82.816 375.936 375.936 0 0 1 0-751.872h0.192v83.264z m215.36-74.304c3.52-11.264 20.352-12.864 23.296 0a170.112 170.112 0 0 0 128.256 128.256c12.16 2.752 12.096 20.544 0 23.296a170.112 170.112 0 0 0-128.256 128.256 11.968 11.968 0 0 1-23.296 0A170.176 170.176 0 0 0 563.712 261.12c-12.16-2.752-12.16-20.544 0-23.296a170.112 170.112 0 0 0 128.256-128.256z" p-id="5375" fill="#737373"></path></svg>